<svg xmlns="http://www.w3.org/2000/svg" viewBox="0 0 108 108">
  <defs>
    <radialGradient id="bg" cx="50%" cy="40%" r="76%">
      <stop offset="0%" stop-color="#D4213F"/><stop offset="100%" stop-color="#8B0010"/>
    </radialGradient>
  </defs>
  <circle cx="54" cy="54" r="54" fill="url(#bg)"/>
  <path fill="#FFF" d="M54,22 C54,22 28,22 28,22 L28,60 Q28,78 54,88 Q80,78 80,60 L80,22 Z"/>
  <path fill="#FFF" d="M30,22 Q28,22 28,24 L28,28 Q42,26 54,26 Q66,26 80,28 L80,24 Q80,22 78,22 Z"/>
  <path fill="#003399" d="M34,34 L40,58 L47,43 L54,58 L61,43 L68,58 L74,34 L70,34 L64,53 L57,38 L54,46 L51,38 L44,53 L38,34 Z"/>
  <path fill="#FFCC00" d="M38,17 L39,20 L42,20 L39.5,22 L40.5,25 L38,23 L35.5,25 L36.5,22 L34,20 L37,20 Z"/>
  <path fill="#FFCC00" d="M46,14 L47,17 L50,17 L47.5,19 L48.5,22 L46,20 L43.5,22 L44.5,19 L42,17 L45,17 Z"/>
  <path fill="#FFCC00" d="M54,12 L55,15 L58,15 L55.5,17 L56.5,20 L54,18 L51.5,20 L52.5,17 L50,15 L53,15 Z"/>
  <path fill="#FFCC00" d="M62,14 L63,17 L66,17 L63.5,19 L64.5,22 L62,20 L59.5,22 L60.5,19 L58,17 L61,17 Z"/>
  <path fill="#FFCC00" d="M70,17 L71,20 L74,20 L71.5,22 L72.5,25 L70,23 L67.5,25 L68.5,22 L66,20 L69,20 Z"/>
</svg>
